# xmcd
#
# Track frame offsets:
#	150
#	15572
#	27914
#	46694
#	63195
#	87694
#	105018
#	121895
#	133944
#	148292
#	170607
#	194860
#	209327
#	223794
#	240627
#	262974
#	279540
#	305224
#	321205
#	337781
#
# Disc length: 4714 seconds
#
# Revision: 0
# Processed by: cddbd v1.5.2PL0 Copyright (c) Steve Scherf et al.
# Submitted via: EZCDAudioConverter 8.5.0.1
#
DISCID=2e126814
DTITLE=Across The Great Divide 1/3
DYEAR=1900
DGENRE=
TTITLE0=Heads Hands and Feet - Warming Up The Band
TTITLE1=Fairport Convention - Cajun Woman
TTITLE2=Mott The Hoople - Home Is Where I Want To Be
TTITLE3=Mighty Baby - Devil's Whisper
TTITLE4=Chilli Willi and The Red Hot Peppers - Desert Island Woman
TTITLE5=Shape Of The Rain - Willowing Trees
TTITLE6=Tony Hazzard - Abbot Of The Vale
TTITLE7=The Hollies - Louisiana Man
TTITLE8=Mason - Fading
TTITLE9=Unicorn - Sleep Song
TTITLE10=Open Road - Boy, You've Got The Sun In Your Eyes
TTITLE11=The Marmalade - Cousin Norman
TTITLE12=Richmond - Clifftop
TTITLE13=Starry Eyed and Laughing - Lady Came From The South
TTITLE14=Stray - Oil Fumes And Sea Air
TTITLE15=Rare Bird - Redman
TTITLE16=Sutherland Brothers Band - The Pie
TTITLE17=Matthews Southern Comfort - Touch Her If You Can
TTITLE18=Quicksand - Empty Street, Empty Heart
TTITLE19=Faces - Ooh La La
EXTD=
EXTT0=
EXTT1=
EXTT2=
EXTT3=
EXTT4=
EXTT5=
EXTT6=
EXTT7=
EXTT8=
EXTT9=
EXTT10=
EXTT11=
EXTT12=
EXTT13=
EXTT14=
EXTT15=
EXTT16=
EXTT17=
EXTT18=
EXTT19=
PLAYORDER=
